<svg width="166" height="42" viewBox="0 0 166 42" fill="none" xmlns="http://www.w3.org/2000/svg">
  <rect width="42" height="42" rx="12" fill="#195F47"/>
  <path d="M16.3 29V13.8H23.14C26.62 13.8 28.92 15.84 28.92 18.94C28.92 22.04 26.62 24.1 23.14 24.1H20.14V29H16.3ZM20.14 21H22.84C24.32 21 25.04 20.26 25.04 18.94C25.04 17.62 24.32 16.9 22.84 16.9H20.14V21Z" fill="white"/>
  <path d="M55.832 30V12.84H63.128C68.192 12.84 71.768 16.272 71.768 21.42C71.768 26.568 68.192 30 63.128 30H55.832ZM59.696 26.832H62.912C65.864 26.832 67.784 24.96 67.784 21.42C67.784 17.88 65.864 16.008 62.912 16.008H59.696V26.832Z" fill="#173026"/>
  <path d="M74.6852 30V17.112H78.2372V18.744C79.1012 17.496 80.3972 16.8 82.1012 16.8C85.1492 16.8 86.9732 18.816 86.9732 22.08V30H83.4212V22.656C83.4212 20.784 82.4852 19.8 80.8772 19.8C79.2212 19.8 78.2372 20.904 78.2372 22.776V30H74.6852Z" fill="#173026"/>
  <path d="M95.8998 30.312C91.8838 30.312 89.0998 27.624 89.0998 23.544C89.0998 19.488 91.9078 16.8 95.7558 16.8C99.5318 16.8 102.028 19.344 102.028 23.232C102.028 23.736 102.004 24.144 101.932 24.624H92.6038C92.9878 26.52 94.2598 27.6 96.0838 27.6C97.4758 27.6 98.5078 27.072 99.2038 26.04L101.652 27.96C100.5 29.568 98.6278 30.312 95.8998 30.312ZM92.6278 22.224H98.6998C98.4598 20.472 97.3558 19.464 95.7318 19.464C94.1318 19.464 92.9878 20.496 92.6278 22.224Z" fill="#173026"/>
  <path d="M104.473 30V17.112H108.025V18.984C108.769 17.592 110.041 16.8 111.601 16.8C112.105 16.8 112.441 16.848 112.753 16.944V20.184C112.321 20.064 111.913 20.016 111.289 20.016C109.225 20.016 108.025 21.24 108.025 23.76V30H104.473Z" fill="#173026"/>
  <path d="M119.919 30.264C117.095 30.264 115.567 28.896 115.567 26.256V20.04H113.335V17.112H115.567V13.848H119.119V17.112H122.743V20.04H119.119V25.608C119.119 26.712 119.647 27.216 120.775 27.216C121.303 27.216 121.807 27.144 122.479 26.976V29.76C121.591 30.096 120.799 30.264 119.919 30.264Z" fill="#173026"/>
  <path d="M130.391 30.312C127.463 30.312 125.615 28.824 125.615 26.4C125.615 23.76 127.607 22.344 131.215 22.032L134.767 21.72V21.456C134.767 20.088 133.951 19.296 132.399 19.296C130.943 19.296 130.031 19.968 129.647 21.216L126.359 20.256C126.983 18.024 129.071 16.8 132.567 16.8C136.631 16.8 138.319 18.576 138.319 21.624V30H134.959V28.608C134.047 29.712 132.655 30.312 130.391 30.312ZM129.071 26.208C129.071 27.216 129.839 27.816 131.095 27.816C133.183 27.816 134.767 26.448 134.767 24.816V24.024L131.887 24.288C130.007 24.456 129.071 25.08 129.071 26.208Z" fill="#173026"/>
  <path d="M141.683 30V12.36H145.235V30H141.683Z" fill="#173026"/>
</svg>
