<svg xmlns="http://www.w3.org/2000/svg" viewBox="0 0 1600 1000" width="1600" height="1000" font-family="-apple-system, Inter, system-ui, sans-serif">
  <defs>
    <linearGradient id="hero" x1="0" y1="0" x2="1" y2="1">
      <stop offset="0" stop-color="#ceff5a"/>
      <stop offset="0.55" stop-color="#b9e846"/>
      <stop offset="1" stop-color="#9fc921"/>
    </linearGradient>
    <radialGradient id="heroGlow" cx="100%" cy="0%" r="60%">
      <stop offset="0" stop-color="#ffffff" stop-opacity="0.55"/>
      <stop offset="1" stop-color="#ffffff" stop-opacity="0"/>
    </radialGradient>
  </defs>

  <rect width="1600" height="1000" rx="18" fill="#f5f4f0"/>
  <rect x="16" y="16" width="1568" height="968" rx="14" fill="#ffffff" stroke="#ececea"/>
  <rect x="16" y="16" width="1568" height="40" rx="14" fill="#faf9f6" stroke="#ececea"/>
  <circle cx="40" cy="36" r="5" fill="#ff6b6b"/>
  <circle cx="58" cy="36" r="5" fill="#ffb24a"/>
  <circle cx="76" cy="36" r="5" fill="#44c06a"/>
  <text x="800" y="40" font-size="11" fill="#87847c" text-anchor="middle">daftar/dashboard</text>

  <!-- Sidebar -->
  <rect x="16" y="56" width="240" height="928" fill="#ffffff" stroke="#ececea"/>
  <g transform="translate(36,94)">
    <text font-size="22" font-weight="700" fill="#1e1c1a" letter-spacing="-0.5">Daftar</text>
    <text x="86" y="-4" font-size="10" font-weight="600" fill="#87847c" letter-spacing="1.5">MVP</text>
  </g>
  <line x1="36" y1="112" x2="236" y2="112" stroke="#ececea"/>

  <g font-size="13" transform="translate(32,136)">
    <rect width="208" height="34" rx="8" fill="#e5ffa8"/>
    <text x="40" y="22" fill="#1d2805" font-weight="700">Dashboard</text>
    <circle cx="20" cy="17" r="3" fill="#3f5011"/>

    <g transform="translate(0,40)"><text x="40" y="22" fill="#54514c">Guided Setup</text><circle cx="20" cy="18" r="2" fill="#87847c"/></g>
    <g transform="translate(0,80)"><text x="40" y="22" fill="#54514c">Log</text><circle cx="20" cy="18" r="2" fill="#87847c"/></g>
    <g transform="translate(0,120)"><text x="40" y="22" fill="#54514c">Ledger</text><circle cx="20" cy="18" r="2" fill="#87847c"/></g>
    <g transform="translate(0,160)"><text x="40" y="22" fill="#54514c">Compliance</text><circle cx="20" cy="18" r="2" fill="#87847c"/></g>
    <g transform="translate(0,200)"><text x="40" y="22" fill="#54514c">Reports</text><circle cx="20" cy="18" r="2" fill="#87847c"/></g>
  </g>

  <text x="48" y="388" font-size="10" letter-spacing="2.5" font-weight="700" fill="#87847c">WORKSPACE</text>
  <g font-size="13" transform="translate(32,400)">
    <g><text x="40" y="22" fill="#54514c">Accountants</text><circle cx="20" cy="18" r="2" fill="#87847c"/></g>
    <g transform="translate(0,40)"><text x="40" y="22" fill="#54514c">Connect books</text><circle cx="20" cy="18" r="2" fill="#87847c"/></g>
    <g transform="translate(0,80)"><text x="40" y="22" fill="#54514c">Glossary</text><circle cx="20" cy="18" r="2" fill="#87847c"/></g>
  </g>

  <g transform="translate(36,880)">
    <rect width="200" height="74" rx="10" fill="#f4ffd9" stroke="#d4ff6e"/>
    <text x="14" y="24" font-size="10" letter-spacing="1.5" font-weight="700" fill="#637f0f">COMPANY</text>
    <text x="14" y="46" font-size="13" font-weight="700" fill="#1e1c1a">Mithaq Technologies</text>
    <text x="14" y="64" font-size="11" fill="#87847c">CR 7030042851</text>
  </g>

  <!-- Top bar -->
  <rect x="256" y="56" width="1328" height="64" fill="#ffffff" stroke="#ececea"/>
  <text x="288" y="94" font-size="13" fill="#87847c">Saturday, 28 February 2026</text>
  <g transform="translate(1408,73)">
    <rect width="86" height="30" rx="8" fill="#ffffff" stroke="#d6d5d1"/>
    <text x="43" y="20" font-size="12" fill="#54514c" text-anchor="middle">العربية</text>
  </g>
  <g transform="translate(1506,73)">
    <circle cx="15" cy="15" r="15" fill="#ceff5a"/>
    <text x="15" y="20" font-size="11" font-weight="800" fill="#1d2805" text-anchor="middle">FA</text>
  </g>

  <!-- Page content -->
  <g transform="translate(284,148)">
    <text font-size="11" letter-spacing="2.5" font-weight="700" fill="#87847c">DASHBOARD · FEB 2026</text>
    <text y="36" font-size="28" font-weight="600" fill="#1e1c1a" letter-spacing="-0.5">Mithaq Technologies LLC</text>
    <text y="62" font-size="13" fill="#87847c">Here's where things stand</text>
    <g transform="translate(1140,12)">
      <rect width="140" height="26" rx="13" fill="#f4ffd9" stroke="#d4ff6e"/>
      <circle cx="14" cy="13" r="3" fill="#9fc921"/>
      <text x="26" y="17" font-size="11" fill="#3f5011" font-weight="600">Not VAT-registered</text>
    </g>
  </g>

  <!-- Hero gradient band -->
  <g transform="translate(284,240)">
    <rect width="1280" height="180" rx="24" fill="url(#hero)"/>
    <rect width="1280" height="180" rx="24" fill="url(#heroGlow)" opacity="0.45"/>
    <text x="28" y="38" font-size="11" letter-spacing="2.5" font-weight="700" fill="#1d2805" opacity="0.7">COMPANY PULSE</text>

    <g transform="translate(28,66)">
      <text font-size="10" letter-spacing="1.5" font-weight="700" fill="#1d2805" opacity="0.7">CASH</text>
      <text y="40" font-size="30" font-weight="700" fill="#1d2805">273,450 SAR</text>
      <text y="66" font-size="12" fill="#1d2805" opacity="0.7">Al Rajhi · 28 Feb 2026</text>
    </g>
    <g transform="translate(348,66)">
      <text font-size="10" letter-spacing="1.5" font-weight="700" fill="#1d2805" opacity="0.7">RUNWAY</text>
      <text y="40" font-size="30" font-weight="700" fill="#1d2805">14.2 <tspan font-size="18" font-weight="400" opacity="0.7">months</tspan></text>
      <text y="66" font-size="12" fill="#1d2805" opacity="0.7">Net burn: 9,513 SAR</text>
    </g>
    <g transform="translate(668,66)">
      <text font-size="10" letter-spacing="1.5" font-weight="700" fill="#1d2805" opacity="0.7">REVENUE · MONTH TO DATE</text>
      <text y="40" font-size="30" font-weight="700" fill="#1d2805">18,750 SAR</text>
      <text y="66" font-size="12" fill="#1d2805" opacity="0.7">Al Nahdi pilot · 1 invoice</text>
    </g>
    <g transform="translate(988,66)">
      <text font-size="10" letter-spacing="1.5" font-weight="700" fill="#1d2805" opacity="0.7">EXPENSES · MONTH TO DATE</text>
      <text y="40" font-size="30" font-weight="700" fill="#1d2805">28,263 SAR</text>
      <text y="66" font-size="12" fill="#1d2805" opacity="0.7">Salaries · rent · software</text>
    </g>
  </g>

  <!-- Next actions + obligations -->
  <g transform="translate(284,452)">
    <rect width="840" height="196" rx="16" fill="#ffffff" stroke="#ececea"/>
    <text x="22" y="32" font-size="15" font-weight="600" fill="#1e1c1a">Next actions</text>
    <line x1="0" y1="48" x2="840" y2="48" stroke="#ececea"/>
    <g transform="translate(0,60)">
      <g>
        <text x="22" y="20" font-size="13" font-weight="600" fill="#1e1c1a">Log this week's expenses</text>
        <text x="22" y="38" font-size="11" fill="#87847c">3 receipts waiting for review</text>
        <rect x="760" y="6" width="28" height="22" rx="11" fill="#d4ff6e"/>
        <text x="774" y="21" font-size="11" font-weight="700" fill="#1d2805" text-anchor="middle">3</text>
      </g>
      <g transform="translate(0,44)">
        <line x1="0" y1="0" x2="840" y2="0" stroke="#ececea"/>
        <text x="22" y="24" font-size="13" font-weight="600" fill="#1e1c1a">Add your bank balance</text>
        <text x="22" y="42" font-size="11" fill="#87847c">Reconcile Al Rajhi statement</text>
      </g>
      <g transform="translate(0,92)">
        <line x1="0" y1="0" x2="840" y2="0" stroke="#ececea"/>
        <text x="22" y="24" font-size="13" font-weight="600" fill="#1e1c1a">Review your regulatory calendar</text>
        <text x="22" y="42" font-size="11" fill="#87847c">GOSI due in 25 days</text>
      </g>
    </g>

    <g transform="translate(860,0)">
      <rect width="420" height="196" rx="16" fill="#ffffff" stroke="#ececea"/>
      <text x="22" y="32" font-size="15" font-weight="600" fill="#1e1c1a">Upcoming obligations</text>
      <text x="398" y="32" text-anchor="end" font-size="11" font-weight="700" fill="#637f0f">View all</text>
      <line x1="0" y1="48" x2="420" y2="48" stroke="#ececea"/>
      <g transform="translate(22,66)" font-size="12">
        <g><circle cx="4" cy="2" r="4" fill="#f59e0b"/><text x="16" y="6" fill="#1e1c1a" font-weight="600">WPS · March payroll</text><text x="16" y="22" fill="#87847c" font-size="11">15 Mar · 15 days</text></g>
        <g transform="translate(0,42)"><circle cx="4" cy="2" r="4" fill="#10b981"/><text x="16" y="6" fill="#1e1c1a" font-weight="600">GOSI · March</text><text x="16" y="22" fill="#87847c" font-size="11">25 Mar · 25 days</text></g>
        <g transform="translate(0,84)"><circle cx="4" cy="2" r="4" fill="#10b981"/><text x="16" y="6" fill="#1e1c1a" font-weight="600">VAT Q1 return</text><text x="16" y="22" fill="#87847c" font-size="11">30 Apr · 61 days</text></g>
      </g>
    </g>
  </g>

  <!-- Workspace teaser cards -->
  <g transform="translate(284,680)">
    <rect width="628" height="108" rx="16" fill="#ffffff" stroke="#ececea"/>
    <text x="22" y="30" font-size="10" letter-spacing="1.8" font-weight="700" fill="#637f0f">BOOK BY THE HOUR</text>
    <text x="22" y="54" font-size="17" font-weight="600" fill="#1e1c1a">Accountants on demand</text>
    <text x="22" y="76" font-size="12" fill="#87847c">SOCPA CPAs from 280 SAR/hr · VAT · Zakat · CFO-on-call</text>
    <text x="22" y="98" font-size="12" font-weight="700" fill="#637f0f">Browse accountants →</text>

    <g transform="translate(652,0)">
      <rect width="628" height="108" rx="16" fill="#ffffff" stroke="#ececea"/>
      <text x="22" y="30" font-size="10" letter-spacing="1.8" font-weight="700" fill="#637f0f">NO DOUBLE-ENTRY</text>
      <text x="22" y="54" font-size="17" font-weight="600" fill="#1e1c1a">Connect your books</text>
      <text x="22" y="76" font-size="12" fill="#87847c">Wafeq · Qoyod · Odoo · Zoho Books · QuickBooks · Xero</text>
      <text x="22" y="98" font-size="12" font-weight="700" fill="#637f0f">See integrations →</text>
    </g>
  </g>

  <!-- Recent activity -->
  <g transform="translate(284,820)">
    <rect width="1280" height="156" rx="16" fill="#ffffff" stroke="#ececea"/>
    <text x="22" y="30" font-size="15" font-weight="600" fill="#1e1c1a">Recent activity</text>
    <text x="1258" y="30" text-anchor="end" font-size="11" font-weight="700" fill="#637f0f">View all</text>
    <g transform="translate(22,50)" font-size="10" letter-spacing="1.2" font-weight="700" fill="#87847c">
      <text x="0">DATE</text>
      <text x="120">MEMO</text>
      <text x="560">ACCOUNT</text>
      <text x="900" text-anchor="end">DEBIT</text>
      <text x="1060" text-anchor="end">CREDIT</text>
    </g>
    <line x1="22" y1="62" x2="1258" y2="62" stroke="#ececea"/>
    <g transform="translate(22,82)" font-size="12">
      <g><text x="0" fill="#54514c">28 Feb 2026</text><text x="120" fill="#1e1c1a">Zoho · monthly amortization</text><text x="560" fill="#54514c">6210 Software subs</text><text x="900" text-anchor="end" fill="#1e1c1a">500</text><text x="1060" text-anchor="end" fill="#54514c">500</text></g>
      <g transform="translate(0,22)"><text x="0" fill="#54514c">20 Feb 2026</text><text x="120" fill="#1e1c1a">Al Nahdi pilot · invoice #1</text><text x="560" fill="#54514c">4100 Revenue</text><text x="900" text-anchor="end" fill="#1e1c1a">18,750</text><text x="1060" text-anchor="end" fill="#54514c">18,750</text></g>
      <g transform="translate(0,44)"><text x="0" fill="#54514c">15 Feb 2026</text><text x="120" fill="#1e1c1a">Co-working rent · Feb</text><text x="560" fill="#54514c">6410 Rent</text><text x="900" text-anchor="end" fill="#1e1c1a">4,500</text><text x="1060" text-anchor="end" fill="#54514c">4,500</text></g>
    </g>
  </g>
</svg>
