<svg xmlns="http://www.w3.org/2000/svg" viewBox="0 0 1600 1000" width="1600" height="1000" font-family="-apple-system, Inter, 'SF Pro', system-ui, sans-serif">
  <defs>
    <linearGradient id="accent" x1="0" y1="0" x2="1" y2="1">
      <stop offset="0" stop-color="#ff5a1f"/><stop offset="1" stop-color="#c83512"/>
    </linearGradient>
    <filter id="soft" x="-5%" y="-5%" width="110%" height="110%">
      <feGaussianBlur stdDeviation="8"/><feComponentTransfer><feFuncA type="linear" slope="0.12"/></feComponentTransfer>
      <feComposite in2="SourceGraphic" operator="over"/>
    </filter>
  </defs>
  <!-- Browser frame -->
  <rect width="1600" height="1000" rx="18" fill="#f5f4f0"/>
  <rect x="20" y="20" width="1560" height="960" rx="14" fill="#ffffff" stroke="#ececea"/>
  <!-- Window chrome -->
  <rect x="20" y="20" width="1560" height="44" rx="14" fill="#faf9f6" stroke="#ececea"/>
  <circle cx="46" cy="42" r="6" fill="#ff6b6b"/><circle cx="68" cy="42" r="6" fill="#ffb24a"/><circle cx="90" cy="42" r="6" fill="#44c06a"/>
  <rect x="680" y="30" width="340" height="24" rx="8" fill="#ffffff" stroke="#ececea"/>
  <text x="850" y="46" font-size="12" fill="#87847c" text-anchor="middle">ahmedmubarak14.github.io/daftar/dashboard</text>

  <!-- Sidebar -->
  <rect x="20" y="64" width="240" height="916" fill="#faf9f6"/>
  <g transform="translate(36,92)">
    <rect width="32" height="32" rx="8" fill="url(#accent)"/>
    <text x="16" y="22" font-size="16" fill="#fff" text-anchor="middle" font-weight="700">د</text>
    <text x="48" y="22" font-size="17" fill="#1e1c1a" font-weight="600">Daftar</text>
  </g>
  <g transform="translate(36,150)" font-size="13" fill="#54514c">
    <rect width="208" height="36" rx="9" fill="#ffffff" stroke="#ececea"/>
    <text x="18" y="22" fill="#1e1c1a" font-weight="600">Dashboard</text>
    <text x="18" y="74">Guided Setup</text>
    <text x="18" y="116">Log</text>
    <text x="18" y="158">Ledger</text>
    <text x="18" y="200">Compliance</text>
    <text x="18" y="242">Reports</text>
    <text x="18" y="284">Glossary</text>
  </g>

  <!-- Main content -->
  <g transform="translate(290,92)">
    <text font-size="13" fill="#87847c" font-weight="600" letter-spacing="2">MITHAQ TECHNOLOGIES LLC</text>
    <text y="36" font-size="26" fill="#1e1c1a" font-weight="600">Here's where things stand</text>
    <g transform="translate(760,6)">
      <rect width="168" height="28" rx="14" fill="#ecfdf5" stroke="#a7f3d0"/>
      <circle cx="18" cy="14" r="5" fill="#10b981"/>
      <text x="34" y="19" font-size="12" fill="#047857">Not VAT-registered</text>
    </g>

    <!-- Stat cards -->
    <g transform="translate(0,72)">
      <g>
        <rect width="296" height="118" rx="14" fill="#ffffff" stroke="#ececea"/>
        <text x="22" y="32" font-size="11" fill="#87847c" letter-spacing="1.5" font-weight="600">CASH</text>
        <text x="22" y="76" font-size="30" fill="#1e1c1a" font-weight="600">273,450</text>
        <text x="22" y="100" font-size="12" fill="#87847c">Al Rajhi · 28 Feb 2026</text>
      </g>
      <g transform="translate(314,0)">
        <rect width="296" height="118" rx="14" fill="url(#accent)"/>
        <text x="22" y="32" font-size="11" fill="#ffffff" opacity="0.75" letter-spacing="1.5" font-weight="600">RUNWAY</text>
        <text x="22" y="76" font-size="30" fill="#ffffff" font-weight="600">14.2 <tspan font-size="14" opacity="0.8">months</tspan></text>
        <text x="22" y="100" font-size="12" fill="#ffffff" opacity="0.85">Net burn: 9,150 SAR</text>
      </g>
      <g transform="translate(628,0)">
        <rect width="296" height="118" rx="14" fill="#ffffff" stroke="#ececea"/>
        <text x="22" y="32" font-size="11" fill="#87847c" letter-spacing="1.5" font-weight="600">REVENUE · MTD</text>
        <text x="22" y="76" font-size="30" fill="#10b981" font-weight="600">18,750</text>
        <text x="22" y="100" font-size="12" fill="#87847c">Al Nahdi pilot</text>
      </g>
      <g transform="translate(942,0)">
        <rect width="296" height="118" rx="14" fill="#ffffff" stroke="#ececea"/>
        <text x="22" y="32" font-size="11" fill="#87847c" letter-spacing="1.5" font-weight="600">EXPENSES · MTD</text>
        <text x="22" y="76" font-size="30" fill="#1e1c1a" font-weight="600">27,900</text>
        <text x="22" y="100" font-size="12" fill="#87847c">Salaries · rent · subs</text>
      </g>
    </g>

    <!-- Two-col: Next actions + Obligations -->
    <g transform="translate(0,212)">
      <!-- Next actions -->
      <g>
        <rect width="808" height="256" rx="14" fill="#ffffff" stroke="#ececea"/>
        <text x="22" y="30" font-size="15" font-weight="600" fill="#1e1c1a">Next actions</text>
        <g transform="translate(0,54)" font-size="14">
          <g>
            <rect y="0" width="808" height="1" fill="#ececea"/>
            <text x="22" y="28" fill="#1e1c1a" font-weight="500">Log this week's expenses</text>
            <text x="22" y="50" fill="#87847c" font-size="12">3 receipts waiting for review</text>
            <rect x="700" y="14" width="28" height="24" rx="12" fill="#fff4ed"/>
            <text x="714" y="30" font-size="11" fill="#c83512" font-weight="700" text-anchor="middle">3</text>
          </g>
          <g transform="translate(0,64)">
            <rect y="0" width="808" height="1" fill="#ececea"/>
            <text x="22" y="28" fill="#1e1c1a" font-weight="500">Add your bank balance</text>
            <text x="22" y="50" fill="#87847c" font-size="12">Reconcile Al Rajhi statement</text>
          </g>
          <g transform="translate(0,128)">
            <rect y="0" width="808" height="1" fill="#ececea"/>
            <text x="22" y="28" fill="#1e1c1a" font-weight="500">Review your regulatory calendar</text>
            <text x="22" y="50" fill="#87847c" font-size="12">GOSI due in 25 days</text>
          </g>
        </g>
      </g>
      <!-- Obligations -->
      <g transform="translate(824,0)">
        <rect width="414" height="256" rx="14" fill="#ffffff" stroke="#ececea"/>
        <text x="22" y="30" font-size="15" font-weight="600" fill="#1e1c1a">Upcoming obligations</text>
        <text x="392" y="30" font-size="12" fill="#c83512" text-anchor="end" font-weight="500">View all</text>
        <g transform="translate(22,58)" font-size="13">
          <g>
            <circle cx="6" cy="6" r="5" fill="#10b981"/>
            <text x="20" y="10" font-weight="500" fill="#1e1c1a">GOSI · March</text>
            <text x="20" y="28" font-size="11" fill="#87847c">25 Mar 2026 · 25 days</text>
          </g>
          <g transform="translate(0,48)">
            <circle cx="6" cy="6" r="5" fill="#f59e0b"/>
            <text x="20" y="10" font-weight="500" fill="#1e1c1a">VAT Q1 return</text>
            <text x="20" y="28" font-size="11" fill="#87847c">30 Apr 2026 · 61 days</text>
          </g>
          <g transform="translate(0,96)">
            <circle cx="6" cy="6" r="5" fill="#10b981"/>
            <text x="20" y="10" font-weight="500" fill="#1e1c1a">CR renewal</text>
            <text x="20" y="28" font-size="11" fill="#87847c">15 Jul 2026 · 137 days</text>
          </g>
          <g transform="translate(0,144)">
            <circle cx="6" cy="6" r="5" fill="#10b981"/>
            <text x="20" y="10" font-weight="500" fill="#1e1c1a">WPS · March</text>
            <text x="20" y="28" font-size="11" fill="#87847c">15 Mar 2026 · 15 days</text>
          </g>
        </g>
      </g>
    </g>

    <!-- Recent activity -->
    <g transform="translate(0,492)">
      <rect width="1238" height="300" rx="14" fill="#ffffff" stroke="#ececea"/>
      <text x="22" y="30" font-size="15" font-weight="600" fill="#1e1c1a">Recent activity</text>
      <g transform="translate(22,54)" font-size="12" fill="#87847c">
        <text x="0" y="0" letter-spacing="0.5" font-weight="600">DATE</text>
        <text x="150" y="0" letter-spacing="0.5" font-weight="600">MEMO</text>
        <text x="620" y="0" letter-spacing="0.5" font-weight="600">ACCOUNT</text>
        <text x="900" y="0" text-anchor="end" letter-spacing="0.5" font-weight="600">DEBIT</text>
        <text x="1080" y="0" text-anchor="end" letter-spacing="0.5" font-weight="600">CREDIT</text>
      </g>
      <g transform="translate(22,68)">
        <line x1="-22" y1="0" x2="1216" y2="0" stroke="#ececea"/>
      </g>
      <g transform="translate(22,94)" font-size="13">
        <g>
          <text x="0" y="0" fill="#54514c">28 Feb 2026</text>
          <text x="150" y="0" fill="#1e1c1a">Zoho subscription · monthly amortization</text>
          <text x="620" y="0" fill="#54514c">6210 Software Subs</text>
          <text x="900" y="0" fill="#1e1c1a" text-anchor="end">500</text>
          <text x="1080" y="0" fill="#54514c" text-anchor="end">500</text>
          <text x="1180" y="0" fill="#c83512" font-size="11" text-anchor="end" font-weight="600">Why?</text>
        </g>
        <g transform="translate(0,44)">
          <text x="0" y="0" fill="#54514c">20 Feb 2026</text>
          <text x="150" y="0" fill="#1e1c1a">Al Nahdi pilot · first invoice</text>
          <text x="620" y="0" fill="#54514c">4100 Revenue</text>
          <text x="900" y="0" fill="#1e1c1a" text-anchor="end">18,750</text>
          <text x="1080" y="0" fill="#54514c" text-anchor="end">18,750</text>
          <text x="1180" y="0" fill="#c83512" font-size="11" text-anchor="end" font-weight="600">Why?</text>
        </g>
        <g transform="translate(0,88)">
          <text x="0" y="0" fill="#54514c">15 Feb 2026</text>
          <text x="150" y="0" fill="#1e1c1a">Co-working rent · Feb</text>
          <text x="620" y="0" fill="#54514c">6410 Rent</text>
          <text x="900" y="0" fill="#1e1c1a" text-anchor="end">4,500</text>
          <text x="1080" y="0" fill="#54514c" text-anchor="end">4,500</text>
          <text x="1180" y="0" fill="#c83512" font-size="11" text-anchor="end" font-weight="600">Why?</text>
        </g>
        <g transform="translate(0,132)">
          <text x="0" y="0" fill="#54514c">01 Feb 2026</text>
          <text x="150" y="0" fill="#1e1c1a">Monthly salaries · 2 employees</text>
          <text x="620" y="0" fill="#54514c">6100 Salaries</text>
          <text x="900" y="0" fill="#1e1c1a" text-anchor="end">22,900</text>
          <text x="1080" y="0" fill="#54514c" text-anchor="end">22,900</text>
          <text x="1180" y="0" fill="#c83512" font-size="11" text-anchor="end" font-weight="600">Why?</text>
        </g>
        <g transform="translate(0,176)">
          <text x="0" y="0" fill="#54514c">22 Jan 2026</text>
          <text x="150" y="0" fill="#1e1c1a">2× MacBook Pro · capitalized</text>
          <text x="620" y="0" fill="#54514c">1510 IT Equipment</text>
          <text x="900" y="0" fill="#1e1c1a" text-anchor="end">17,400</text>
          <text x="1080" y="0" fill="#54514c" text-anchor="end">17,400</text>
          <text x="1180" y="0" fill="#c83512" font-size="11" text-anchor="end" font-weight="600">Why?</text>
        </g>
      </g>
    </g>
  </g>
</svg>
